<?xml version="1.0" encoding="UTF-8"?>
<svg xmlns="http://www.w3.org/2000/svg" width="24pt" height="24pt" viewBox="0 0 24 24" version="1.1">
    <g id="surface1">
        <path style=" stroke:none;fill-rule:nonzero;fill:rgb(97.254902%,59.607843%,11.372549%);fill-opacity:1;"
              d="M 12.84375 11.015625 C 13.6875 12 12.609375 12.890625 12.609375 12.890625 C 12.609375 12.890625 14.8125 11.765625 13.78125 10.359375 C 12.75 8.953125 12.140625 8.390625 16.03125 6.140625 C 16.03125 6.09375 9.890625 7.640625 12.84375 11.015625 M 13.78125 2.484375 C 13.78125 2.484375 15.65625 4.359375 12 7.171875 C 9.09375 9.46875 11.34375 10.78125 12 12.28125 C 10.3125 10.734375 9.046875 9.421875 9.890625 8.15625 C 11.15625 6.28125 14.53125 5.390625 13.78125 2.484375 "/>
        <path style=" stroke:none;fill-rule:nonzero;fill:rgb(32.54902%,50.980392%,63.137255%);fill-opacity:1;"
              d="M 9.65625 16.265625 C 9.65625 16.265625 8.953125 16.640625 10.125 16.78125 C 11.296875 16.921875 12.28125 16.921875 13.828125 16.640625 C 14.140625 16.824219 14.472656 16.980469 14.8125 17.109375 C 11.34375 18.609375 6.890625 17.0625 9.65625 16.265625 M 9.234375 14.296875 C 9.234375 14.296875 8.484375 14.859375 9.65625 15 C 10.828125 15.140625 12.375 15.1875 14.4375 14.765625 C 14.652344 14.972656 14.90625 15.132812 15.1875 15.234375 C 10.921875 16.453125 6.1875 15.328125 9.234375 14.296875 M 17.4375 17.71875 C 17.4375 17.71875 17.953125 18.140625 16.875 18.46875 C 14.859375 19.078125 8.484375 19.265625 6.703125 18.515625 C 6.046875 18.234375 7.40625 17.71875 8.25 17.71875 C 7.453125 17.25 3.65625 18.703125 6.28125 19.125 C 13.453125 20.25 19.3125 18.5625 17.4375 17.71875 M 9.984375 12.28125 C 9.984375 12.28125 6.75 13.03125 8.8125 13.3125 C 9.703125 13.453125 11.484375 13.40625 13.125 13.265625 C 14.765625 13.125 15.796875 12.890625 15.796875 12.890625 C 15.519531 13.011719 15.253906 13.152344 15 13.3125 C 11.71875 14.15625 5.34375 13.78125 7.171875 12.890625 C 9 12 9.984375 12.28125 9.984375 12.28125 M 15.796875 15.515625 C 19.21875 13.78125 17.625 11.765625 16.125 12.421875 C 17.8125 11.015625 20.859375 14.109375 15.703125 15.609375 L 15.703125 15.515625 M 10.3125 20.25 C 13.546875 20.4375 18.46875 20.15625 18.5625 18.609375 C 18.5625 18.609375 18.328125 19.171875 15.890625 19.640625 C 13.453125 20.109375 9.75 20.109375 7.734375 19.78125 C 7.78125 19.78125 8.203125 20.109375 10.3125 20.25 "/>
    </g>
</svg>
